<svg width="57" height="57" viewBox="0 0 57 57" fill="none" xmlns="http://www.w3.org/2000/svg">
<path d="M28 13.75C36 13.75 42.375 20.25 42.375 28.125C42.375 36.125 35.875 42.5 28 42.5C20 42.5 13.625 36 13.625 28.125C13.625 20.125 20.125 13.75 28 13.75ZM28 18.75C22.75 18.875 18.625 23 18.625 28.125C18.75 33.375 22.875 37.5 28 37.5C33.25 37.375 37.375 33.25 37.375 28.125C37.25 22.875 33.125 18.75 28 18.75ZM39.625 13.125C39.625 15 41.125 16.5 43 16.5C44.875 16.5 46.375 15 46.375 13.125C46.375 11.25 44.875 9.875 43 9.875C41.125 9.875 39.625 11.25 39.625 13.125ZM55.875 16.625C56.125 21.25 56.125 35 55.875 39.625C55.625 44.125 54.625 48.125 51.375 51.375C48 54.75 44.125 55.75 39.625 55.875C35 56.25 21.125 56.25 16.5 55.875C12 55.75 8 54.625 4.75 51.375C1.5 48.125 0.375 44.125 0.25 39.625C0 35 0 21.125 0.25 16.5C0.5 12.125 1.5 8.125 4.75 4.875C8 1.5 12 0.5 16.5 0.25C21.125 0 35 0 39.625 0.25C44.125 0.5 48 1.5 51.375 4.875C54.625 8.125 55.625 12.125 55.875 16.625ZM49.875 44.625C51.375 41 51 32.25 51 28.125C51 24 51.375 15.25 49.875 11.625C48.875 9.125 47 7.25 44.5 6.25C40.875 4.875 32.125 5.125 28 5.125C24 5.125 15.25 4.875 11.5 6.25C9.125 7.25 7.125 9.125 6.25 11.625C4.75 15.25 5.125 24 5.125 28.125C5.125 32.25 4.75 41 6.25 44.625C7.25 47.125 9.125 49 11.5 50C15.25 51.375 24 51.125 28 51.125C32.125 51.125 40.875 51.375 44.5 50C47 49 48.875 47.125 49.875 44.625Z" fill="white"/>
</svg>
