<svg width="20" height="18" viewBox="0 0 20 18" fill="none" xmlns="http://www.w3.org/2000/svg">
<g clip-path="url(#clip0_119_401)">
<path d="M1 2H19C19.2708 2 19.5052 1.90104 19.7031 1.70312C19.901 1.50521 20 1.27084 20 1C20 0.729165 19.901 0.494793 19.7031 0.296875C19.5052 0.098957 19.2708 0 19 0H1C0.729165 0 0.494793 0.098957 0.296875 0.296875C0.098957 0.494793 0 0.729165 0 1C0 1.27084 0.098957 1.50521 0.296875 1.70312C0.494793 1.90104 0.729165 2 1 2ZM19 16H1C0.729165 16 0.494793 16.099 0.296875 16.2969C0.098957 16.4948 0 16.7292 0 17C0 17.2708 0.098957 17.5052 0.296875 17.7031C0.494793 17.901 0.729165 18 1 18H19C19.2708 18 19.5052 17.901 19.7031 17.7031C19.901 17.5052 20 17.2708 20 17C20 16.7292 19.901 16.4948 19.7031 16.2969C19.5052 16.099 19.2708 16 19 16ZM19 8H1C0.729165 8 0.494793 8.09896 0.296875 8.29688C0.098957 8.49479 0 8.72916 0 9C0 9.27084 0.098957 9.50521 0.296875 9.70312C0.494793 9.90104 0.729165 10 1 10H19C19.2708 10 19.5052 9.90104 19.7031 9.70312C19.901 9.50521 20 9.27084 20 9C20 8.72916 19.901 8.49479 19.7031 8.29688C19.5052 8.09896 19.2708 8 19 8Z" fill="white"/>
</g>
<defs>
<clipPath id="clip0_119_401">
<rect width="20" height="18" fill="white"/>
</clipPath>
</defs>
</svg>
