<svg width="24" height="24" viewBox="0 0 24 24" fill="none" xmlns="http://www.w3.org/2000/svg">
<path d="M13.5938 0.9375C13.8281 0.375 14.3906 0 15 0H22.5C23.3438 0 24 0.65625 24 1.5V9C24 9.60938 23.625 10.1719 23.0625 10.4062C22.5 10.6406 21.8906 10.5 21.4219 10.0781L18.75 7.35938L11.5781 14.5781C10.9688 15.1406 10.0312 15.1406 9.42188 14.5781C8.85938 13.9688 8.85938 13.0312 9.42188 12.4219L16.6406 5.25L13.9219 2.57812C13.5 2.10938 13.4062 1.5 13.6406 0.9375H13.5938ZM0 8.25C0 6.1875 1.6875 4.5 3.75 4.5H7.5C8.34375 4.5 9 5.15625 9 6C9 6.84375 8.34375 7.5 7.5 7.5H3.75C3.32812 7.5 3 7.82812 3 8.25V20.25C3 20.6719 3.32812 21 3.75 21H15.75C16.1719 21 16.5 20.6719 16.5 20.25V16.5C16.5 15.6562 17.1562 15 18 15C18.8438 15 19.5 15.6562 19.5 16.5V20.25C19.5 22.3125 17.8125 24 15.75 24H3.75C1.6875 24 0 22.3125 0 20.25V8.25Z" fill="white"/>
</svg>
