<svg width="69" height="48" viewBox="0 0 69 48" fill="none" xmlns="http://www.w3.org/2000/svg">
<path d="M66.875 7.5C68.25 12.875 68.25 24 68.25 24C68.25 24 68.25 35.25 66.875 40.625C66.125 43.5 63.75 45.75 60.875 46.625C55.5 48 34.125 48 34.125 48C34.125 48 12.75 48 7.5 46.625C4.5 45.75 2.25 43.5 1.375 40.625C0 35.25 0 24 0 24C0 24 0 12.875 1.375 7.5C2.25 4.5 4.5 2.25 7.5 1.5C12.75 0 34.125 0 34.125 0C34.125 0 55.5 0 60.75 1.5C63.75 2.25 66.125 4.5 66.875 7.5ZM27.125 34.25L45 24L27.125 13.875V34.25Z" fill="white"/>
</svg>
