<svg width="57" height="57" fill="none" xmlns="http://www.w3.org/2000/svg"><path d="M28 13.75c8 0 14.375 6.5 14.375 14.375 0 8-6.5 14.375-14.375 14.375-8 0-14.375-6.5-14.375-14.375 0-8 6.5-14.375 14.375-14.375Zm0 5c-5.25.125-9.375 4.25-9.375 9.375.125 5.25 4.25 9.375 9.375 9.375 5.25-.125 9.375-4.25 9.375-9.375-.125-5.25-4.25-9.375-9.375-9.375Zm11.625-5.625c0 1.875 1.5 3.375 3.375 3.375s3.375-1.5 3.375-3.375-1.5-3.25-3.375-3.25-3.375 1.375-3.375 3.25Zm16.25 3.5c.25 4.625.25 18.375 0 23-.25 4.5-1.25 8.5-4.5 11.75-3.375 3.375-7.25 4.375-11.75 4.5-4.625.375-18.5.375-23.125 0-4.5-.125-8.5-1.25-11.75-4.5s-4.375-7.25-4.5-11.75C0 35 0 21.125.25 16.5.5 12.125 1.5 8.125 4.75 4.875 8 1.5 12 .5 16.5.25 21.125 0 35 0 39.625.25 44.125.5 48 1.5 51.375 4.875c3.25 3.25 4.25 7.25 4.5 11.75Zm-6 28C51.375 41 51 32.25 51 28.125s.375-12.875-1.125-16.5c-1-2.5-2.875-4.375-5.375-5.375C40.875 4.875 32.125 5.125 28 5.125c-4 0-12.75-.25-16.5 1.125-2.375 1-4.375 2.875-5.25 5.375C4.75 15.25 5.125 24 5.125 28.125S4.75 41 6.25 44.625c1 2.5 2.875 4.375 5.25 5.375 3.75 1.375 12.5 1.125 16.5 1.125 4.125 0 12.875.25 16.5-1.125 2.5-1 4.375-2.875 5.375-5.375Z" fill="#fff"/></svg>