<svg width="20" height="18" fill="none" xmlns="http://www.w3.org/2000/svg"><g clip-path="url('#clip0_119_401')"><path d="M1 2h18c.27 0 .505-.099.703-.297A.961.961 0 0 0 20 1a.961.961 0 0 0-.297-.703A.961.961 0 0 0 19 0H1a.961.961 0 0 0-.703.297A.961.961 0 0 0 0 1c0 .27.099.505.297.703A.961.961 0 0 0 1 2Zm18 14H1a.961.961 0 0 0-.703.297A.961.961 0 0 0 0 17c0 .27.099.505.297.703A.961.961 0 0 0 1 18h18c.27 0 .505-.099.703-.297A.961.961 0 0 0 20 17a.961.961 0 0 0-.297-.703A.961.961 0 0 0 19 16Zm0-8H1a.961.961 0 0 0-.703.297A.961.961 0 0 0 0 9c0 .27.099.505.297.703A.961.961 0 0 0 1 10h18c.27 0 .505-.099.703-.297A.961.961 0 0 0 20 9a.961.961 0 0 0-.297-.703A.961.961 0 0 0 19 8Z" fill="#fff"/></g><defs><clipPath id="clip0_119_401"><path fill="#fff" d="M0 0h20v18H0z"/></clipPath></defs></svg>