<svg width="24" height="24" fill="none" xmlns="http://www.w3.org/2000/svg"><path d="M13.594.938A1.535 1.535 0 0 1 15 0h7.5c.844 0 1.5.656 1.5 1.5V9c0 .61-.375 1.172-.938 1.406-.562.235-1.171.094-1.64-.328L18.75 7.36l-7.172 7.22a1.589 1.589 0 0 1-2.156 0 1.588 1.588 0 0 1 0-2.157L16.64 5.25l-2.72-2.672a1.518 1.518 0 0 1-.28-1.64h-.047ZM0 8.25A3.761 3.761 0 0 1 3.75 4.5H7.5C8.344 4.5 9 5.156 9 6s-.656 1.5-1.5 1.5H3.75a.74.74 0 0 0-.75.75v12c0 .422.328.75.75.75h12a.74.74 0 0 0 .75-.75V16.5c0-.844.656-1.5 1.5-1.5s1.5.656 1.5 1.5v3.75A3.761 3.761 0 0 1 15.75 24h-12A3.761 3.761 0 0 1 0 20.25v-12Z" fill="#fff"/></svg>